<mxfile host="app.diagrams.net" modified="2023-12-07T20:17:20.234Z" agent="Mozilla/5.0 (Windows NT 10.0; Win64; x64) AppleWebKit/537.36 (KHTML, like Gecko) Chrome/119.0.0.0 Safari/537.36" etag="khrDFhoAYhGtrt9NrN4V" version="22.1.7" type="device">
  <diagram id="JHvTjUsWatYXb-uX-RTq" name="Page-1">
    <mxGraphModel dx="778" dy="425" grid="1" gridSize="10" guides="1" tooltips="1" connect="1" arrows="1" fold="1" page="1" pageScale="1" pageWidth="850" pageHeight="1100" math="0" shadow="0">
      <root>
        <mxCell id="0" />
        <mxCell id="1" parent="0" />
        <mxCell id="YiFbiniZsvciW-DfF07e-1" value="" style="ellipse;whiteSpace=wrap;html=1;aspect=fixed;fillColor=#000000;" parent="1" vertex="1">
          <mxGeometry x="364" y="20" width="20" height="20" as="geometry" />
        </mxCell>
        <mxCell id="YiFbiniZsvciW-DfF07e-2" value="" style="shape=umlLifeline;perimeter=lifelinePerimeter;whiteSpace=wrap;html=1;container=1;dropTarget=0;collapsible=0;recursiveResize=0;outlineConnect=0;portConstraint=eastwest;newEdgeStyle={&quot;curved&quot;:0,&quot;rounded&quot;:0};participant=umlActor;" parent="1" vertex="1">
          <mxGeometry x="298" y="130" width="20" height="100" as="geometry" />
        </mxCell>
        <mxCell id="YiFbiniZsvciW-DfF07e-3" value="" style="html=1;points=[[0,0,0,0,5],[0,1,0,0,-5],[1,0,0,0,5],[1,1,0,0,-5]];perimeter=orthogonalPerimeter;outlineConnect=0;targetShapes=umlLifeline;portConstraint=eastwest;newEdgeStyle={&quot;curved&quot;:0,&quot;rounded&quot;:0};" parent="YiFbiniZsvciW-DfF07e-2" vertex="1">
          <mxGeometry x="5" y="60" width="10" height="40" as="geometry" />
        </mxCell>
        <mxCell id="YiFbiniZsvciW-DfF07e-4" value="User" style="text;html=1;align=center;verticalAlign=middle;resizable=0;points=[];autosize=1;strokeColor=none;fillColor=none;" parent="1" vertex="1">
          <mxGeometry x="258" y="130" width="50" height="30" as="geometry" />
        </mxCell>
        <mxCell id="YiFbiniZsvciW-DfF07e-5" value="UI: UserInterface" style="shape=umlLifeline;perimeter=lifelinePerimeter;whiteSpace=wrap;html=1;container=1;dropTarget=0;collapsible=0;recursiveResize=0;outlineConnect=0;portConstraint=eastwest;newEdgeStyle={&quot;curved&quot;:0,&quot;rounded&quot;:0};" parent="1" vertex="1">
          <mxGeometry x="373" y="130" width="100" height="90" as="geometry" />
        </mxCell>
        <mxCell id="YiFbiniZsvciW-DfF07e-6" value="" style="html=1;points=[[0,0,0,0,5],[0,1,0,0,-5],[1,0,0,0,5],[1,1,0,0,-5]];perimeter=orthogonalPerimeter;outlineConnect=0;targetShapes=umlLifeline;portConstraint=eastwest;newEdgeStyle={&quot;curved&quot;:0,&quot;rounded&quot;:0};" parent="YiFbiniZsvciW-DfF07e-5" vertex="1">
          <mxGeometry x="45" y="60" width="10" height="30" as="geometry" />
        </mxCell>
        <mxCell id="YiFbiniZsvciW-DfF07e-7" value="parameters" style="html=1;verticalAlign=bottom;endArrow=block;curved=0;rounded=0;" parent="1" edge="1">
          <mxGeometry width="80" relative="1" as="geometry">
            <mxPoint x="303" y="190" as="sourcePoint" />
            <mxPoint x="418" y="190" as="targetPoint" />
          </mxGeometry>
        </mxCell>
        <mxCell id="YiFbiniZsvciW-DfF07e-9" value="Input Parameters" style="shape=umlFrame;whiteSpace=wrap;html=1;pointerEvents=0;width=110;height=20;align=left;" parent="1" vertex="1">
          <mxGeometry x="248" y="90" width="250" height="150" as="geometry" />
        </mxCell>
        <mxCell id="YiFbiniZsvciW-DfF07e-13" style="edgeStyle=orthogonalEdgeStyle;rounded=0;orthogonalLoop=1;jettySize=auto;html=1;exitX=0.5;exitY=1;exitDx=0;exitDy=0;entryX=0.503;entryY=0.007;entryDx=0;entryDy=0;entryPerimeter=0;" parent="1" source="YiFbiniZsvciW-DfF07e-1" target="YiFbiniZsvciW-DfF07e-9" edge="1">
          <mxGeometry relative="1" as="geometry" />
        </mxCell>
        <mxCell id="DWZ_4HrFMzU2AhQ7Lu3O-1" value="" style="strokeWidth=2;html=1;shape=mxgraph.flowchart.decision;whiteSpace=wrap;" parent="1" vertex="1">
          <mxGeometry x="363.00206896551725" y="280.0028244274809" width="23.27586206896552" height="33.587786259541986" as="geometry" />
        </mxCell>
        <mxCell id="DWZ_4HrFMzU2AhQ7Lu3O-2" style="edgeStyle=orthogonalEdgeStyle;rounded=0;orthogonalLoop=1;jettySize=auto;html=1;exitX=0.5;exitY=0;exitDx=0;exitDy=0;exitPerimeter=0;entryX=0.508;entryY=1;entryDx=0;entryDy=0;entryPerimeter=0;startArrow=classic;startFill=1;endArrow=none;endFill=0;" parent="1" source="DWZ_4HrFMzU2AhQ7Lu3O-1" target="YiFbiniZsvciW-DfF07e-9" edge="1">
          <mxGeometry relative="1" as="geometry" />
        </mxCell>
        <mxCell id="DWZ_4HrFMzU2AhQ7Lu3O-7" style="edgeStyle=orthogonalEdgeStyle;rounded=0;orthogonalLoop=1;jettySize=auto;html=1;exitX=0.11;exitY=0.598;exitDx=0;exitDy=0;exitPerimeter=0;" parent="1" edge="1" source="DWZ_4HrFMzU2AhQ7Lu3O-1">
          <mxGeometry relative="1" as="geometry">
            <mxPoint x="290" y="350" as="targetPoint" />
            <mxPoint x="358" y="307" as="sourcePoint" />
          </mxGeometry>
        </mxCell>
        <mxCell id="DWZ_4HrFMzU2AhQ7Lu3O-8" value="[Local Data Accessed]" style="edgeLabel;html=1;align=center;verticalAlign=middle;resizable=0;points=[];" parent="DWZ_4HrFMzU2AhQ7Lu3O-7" vertex="1" connectable="0">
          <mxGeometry x="-0.1978" y="1" relative="1" as="geometry">
            <mxPoint x="-23" y="-11" as="offset" />
          </mxGeometry>
        </mxCell>
        <mxCell id="DWZ_4HrFMzU2AhQ7Lu3O-9" style="edgeStyle=orthogonalEdgeStyle;rounded=0;orthogonalLoop=1;jettySize=auto;html=1;exitX=0.893;exitY=0.593;exitDx=0;exitDy=0;exitPerimeter=0;entryX=0.195;entryY=0.001;entryDx=0;entryDy=0;entryPerimeter=0;" parent="1" edge="1" target="DWZ_4HrFMzU2AhQ7Lu3O-59" source="DWZ_4HrFMzU2AhQ7Lu3O-1">
          <mxGeometry relative="1" as="geometry">
            <mxPoint x="460" y="330" as="targetPoint" />
            <Array as="points">
              <mxPoint x="450" y="300" />
            </Array>
            <mxPoint x="398.28" y="300" as="sourcePoint" />
          </mxGeometry>
        </mxCell>
        <mxCell id="DWZ_4HrFMzU2AhQ7Lu3O-10" value="[API Data Accessed]" style="edgeLabel;html=1;align=center;verticalAlign=middle;resizable=0;points=[];" parent="DWZ_4HrFMzU2AhQ7Lu3O-9" vertex="1" connectable="0">
          <mxGeometry x="-0.4115" y="3" relative="1" as="geometry">
            <mxPoint x="27" y="-7" as="offset" />
          </mxGeometry>
        </mxCell>
        <mxCell id="DWZ_4HrFMzU2AhQ7Lu3O-21" value="DF: DataFilter" style="shape=umlLifeline;perimeter=lifelinePerimeter;whiteSpace=wrap;html=1;container=1;dropTarget=0;collapsible=0;recursiveResize=0;outlineConnect=0;portConstraint=eastwest;newEdgeStyle={&quot;curved&quot;:0,&quot;rounded&quot;:0};" parent="1" vertex="1">
          <mxGeometry x="97.5" y="380" width="100" height="170" as="geometry" />
        </mxCell>
        <mxCell id="DWZ_4HrFMzU2AhQ7Lu3O-22" value="" style="html=1;points=[[0,0,0,0,5],[0,1,0,0,-5],[1,0,0,0,5],[1,1,0,0,-5]];perimeter=orthogonalPerimeter;outlineConnect=0;targetShapes=umlLifeline;portConstraint=eastwest;newEdgeStyle={&quot;curved&quot;:0,&quot;rounded&quot;:0};" parent="DWZ_4HrFMzU2AhQ7Lu3O-21" vertex="1">
          <mxGeometry x="45" y="60" width="10" height="110" as="geometry" />
        </mxCell>
        <mxCell id="DWZ_4HrFMzU2AhQ7Lu3O-23" value="setLocations()" style="html=1;verticalAlign=bottom;endArrow=block;curved=0;rounded=0;" parent="1" edge="1">
          <mxGeometry x="-0.0393" width="80" relative="1" as="geometry">
            <mxPoint x="152.5" y="450" as="sourcePoint" />
            <mxPoint x="267.5" y="450" as="targetPoint" />
            <Array as="points">
              <mxPoint x="212.5" y="450" />
            </Array>
            <mxPoint as="offset" />
          </mxGeometry>
        </mxCell>
        <mxCell id="DWZ_4HrFMzU2AhQ7Lu3O-24" value="locations" style="html=1;verticalAlign=bottom;endArrow=open;dashed=1;endSize=8;curved=0;rounded=0;" parent="1" edge="1">
          <mxGeometry relative="1" as="geometry">
            <mxPoint x="267.5" y="510" as="sourcePoint" />
            <mxPoint x="152.5" y="510" as="targetPoint" />
            <Array as="points">
              <mxPoint x="197.5" y="510" />
            </Array>
            <mxPoint as="offset" />
          </mxGeometry>
        </mxCell>
        <mxCell id="DWZ_4HrFMzU2AhQ7Lu3O-25" value="setRequirements()" style="html=1;verticalAlign=bottom;endArrow=block;curved=0;rounded=0;" parent="1" edge="1">
          <mxGeometry x="-0.0393" width="80" relative="1" as="geometry">
            <mxPoint x="152.5" y="470" as="sourcePoint" />
            <mxPoint x="267.5" y="470" as="targetPoint" />
            <Array as="points">
              <mxPoint x="207.5" y="470" />
            </Array>
            <mxPoint as="offset" />
          </mxGeometry>
        </mxCell>
        <mxCell id="DWZ_4HrFMzU2AhQ7Lu3O-26" value="process()" style="html=1;verticalAlign=bottom;endArrow=block;curved=0;rounded=0;" parent="1" edge="1">
          <mxGeometry x="-0.0393" width="80" relative="1" as="geometry">
            <mxPoint x="152.5" y="489.68000000000006" as="sourcePoint" />
            <mxPoint x="267.5" y="490" as="targetPoint" />
            <Array as="points">
              <mxPoint x="202.5" y="489.68" />
            </Array>
            <mxPoint as="offset" />
          </mxGeometry>
        </mxCell>
        <mxCell id="DWZ_4HrFMzU2AhQ7Lu3O-27" value="SL: Starting Location" style="shape=umlLifeline;perimeter=lifelinePerimeter;whiteSpace=wrap;html=1;container=1;dropTarget=0;collapsible=0;recursiveResize=0;outlineConnect=0;portConstraint=eastwest;newEdgeStyle={&quot;curved&quot;:0,&quot;rounded&quot;:0};" parent="1" vertex="1">
          <mxGeometry x="222.5" y="380" width="100" height="170" as="geometry" />
        </mxCell>
        <mxCell id="DWZ_4HrFMzU2AhQ7Lu3O-28" value="" style="html=1;points=[[0,0,0,0,5],[0,1,0,0,-5],[1,0,0,0,5],[1,1,0,0,-5]];perimeter=orthogonalPerimeter;outlineConnect=0;targetShapes=umlLifeline;portConstraint=eastwest;newEdgeStyle={&quot;curved&quot;:0,&quot;rounded&quot;:0};" parent="DWZ_4HrFMzU2AhQ7Lu3O-27" vertex="1">
          <mxGeometry x="45" y="60" width="10" height="110" as="geometry" />
        </mxCell>
        <mxCell id="DWZ_4HrFMzU2AhQ7Lu3O-29" value="Set Starting Location" style="shape=umlFrame;whiteSpace=wrap;html=1;pointerEvents=0;width=130;height=20;align=left;" parent="1" vertex="1">
          <mxGeometry x="70" y="350" width="280" height="210" as="geometry" />
        </mxCell>
        <mxCell id="DWZ_4HrFMzU2AhQ7Lu3O-30" value="loadData()" style="html=1;align=left;spacingLeft=2;endArrow=block;rounded=0;edgeStyle=orthogonalEdgeStyle;curved=0;rounded=0;" parent="1" edge="1">
          <mxGeometry x="-0.0007" relative="1" as="geometry">
            <mxPoint x="278" y="484" as="sourcePoint" />
            <Array as="points">
              <mxPoint x="278" y="494" />
              <mxPoint x="293" y="494" />
              <mxPoint x="293" y="504" />
            </Array>
            <mxPoint x="278" y="504" as="targetPoint" />
            <mxPoint as="offset" />
          </mxGeometry>
        </mxCell>
        <mxCell id="DWZ_4HrFMzU2AhQ7Lu3O-31" value="DF: DataFilter" style="shape=umlLifeline;perimeter=lifelinePerimeter;whiteSpace=wrap;html=1;container=1;dropTarget=0;collapsible=0;recursiveResize=0;outlineConnect=0;portConstraint=eastwest;newEdgeStyle={&quot;curved&quot;:0,&quot;rounded&quot;:0};" parent="1" vertex="1">
          <mxGeometry x="97.5" y="610" width="100" height="170" as="geometry" />
        </mxCell>
        <mxCell id="DWZ_4HrFMzU2AhQ7Lu3O-32" value="" style="html=1;points=[[0,0,0,0,5],[0,1,0,0,-5],[1,0,0,0,5],[1,1,0,0,-5]];perimeter=orthogonalPerimeter;outlineConnect=0;targetShapes=umlLifeline;portConstraint=eastwest;newEdgeStyle={&quot;curved&quot;:0,&quot;rounded&quot;:0};" parent="DWZ_4HrFMzU2AhQ7Lu3O-31" vertex="1">
          <mxGeometry x="45" y="60" width="10" height="110" as="geometry" />
        </mxCell>
        <mxCell id="DWZ_4HrFMzU2AhQ7Lu3O-33" value="setLocations()" style="html=1;verticalAlign=bottom;endArrow=block;curved=0;rounded=0;" parent="1" edge="1">
          <mxGeometry x="-0.0393" width="80" relative="1" as="geometry">
            <mxPoint x="152.5" y="680" as="sourcePoint" />
            <mxPoint x="267.5" y="680" as="targetPoint" />
            <Array as="points">
              <mxPoint x="212.5" y="680" />
            </Array>
            <mxPoint as="offset" />
          </mxGeometry>
        </mxCell>
        <mxCell id="DWZ_4HrFMzU2AhQ7Lu3O-35" value="setRequirements()" style="html=1;verticalAlign=bottom;endArrow=block;curved=0;rounded=0;" parent="1" edge="1">
          <mxGeometry x="-0.0393" width="80" relative="1" as="geometry">
            <mxPoint x="152.5" y="700" as="sourcePoint" />
            <mxPoint x="267.5" y="700" as="targetPoint" />
            <Array as="points">
              <mxPoint x="207.5" y="700" />
            </Array>
            <mxPoint as="offset" />
          </mxGeometry>
        </mxCell>
        <mxCell id="DWZ_4HrFMzU2AhQ7Lu3O-36" value="process()" style="html=1;verticalAlign=bottom;endArrow=block;curved=0;rounded=0;" parent="1" edge="1">
          <mxGeometry x="-0.0393" width="80" relative="1" as="geometry">
            <mxPoint x="152.5" y="719.6800000000001" as="sourcePoint" />
            <mxPoint x="267.5" y="720" as="targetPoint" />
            <Array as="points">
              <mxPoint x="202.5" y="719.6800000000001" />
            </Array>
            <mxPoint as="offset" />
          </mxGeometry>
        </mxCell>
        <mxCell id="DWZ_4HrFMzU2AhQ7Lu3O-37" value="BB: BoundingBox" style="shape=umlLifeline;perimeter=lifelinePerimeter;whiteSpace=wrap;html=1;container=1;dropTarget=0;collapsible=0;recursiveResize=0;outlineConnect=0;portConstraint=eastwest;newEdgeStyle={&quot;curved&quot;:0,&quot;rounded&quot;:0};" parent="1" vertex="1">
          <mxGeometry x="222.5" y="610" width="100" height="170" as="geometry" />
        </mxCell>
        <mxCell id="DWZ_4HrFMzU2AhQ7Lu3O-38" value="" style="html=1;points=[[0,0,0,0,5],[0,1,0,0,-5],[1,0,0,0,5],[1,1,0,0,-5]];perimeter=orthogonalPerimeter;outlineConnect=0;targetShapes=umlLifeline;portConstraint=eastwest;newEdgeStyle={&quot;curved&quot;:0,&quot;rounded&quot;:0};" parent="DWZ_4HrFMzU2AhQ7Lu3O-37" vertex="1">
          <mxGeometry x="45" y="60" width="10" height="110" as="geometry" />
        </mxCell>
        <mxCell id="DWZ_4HrFMzU2AhQ7Lu3O-39" value="Set Bounding Box" style="shape=umlFrame;whiteSpace=wrap;html=1;pointerEvents=0;width=130;height=20;align=left;" parent="1" vertex="1">
          <mxGeometry x="70" y="580" width="280" height="210" as="geometry" />
        </mxCell>
        <mxCell id="DWZ_4HrFMzU2AhQ7Lu3O-40" value="loadData()" style="html=1;align=left;spacingLeft=2;endArrow=block;rounded=0;edgeStyle=orthogonalEdgeStyle;curved=0;rounded=0;" parent="1" edge="1">
          <mxGeometry x="-0.0007" relative="1" as="geometry">
            <mxPoint x="278" y="714" as="sourcePoint" />
            <Array as="points">
              <mxPoint x="278" y="724" />
              <mxPoint x="293" y="724" />
              <mxPoint x="293" y="734" />
            </Array>
            <mxPoint x="278" y="734" as="targetPoint" />
            <mxPoint as="offset" />
          </mxGeometry>
        </mxCell>
        <mxCell id="DWZ_4HrFMzU2AhQ7Lu3O-41" value="DF: DataFilter" style="shape=umlLifeline;perimeter=lifelinePerimeter;whiteSpace=wrap;html=1;container=1;dropTarget=0;collapsible=0;recursiveResize=0;outlineConnect=0;portConstraint=eastwest;newEdgeStyle={&quot;curved&quot;:0,&quot;rounded&quot;:0};" parent="1" vertex="1">
          <mxGeometry x="97.5" y="850" width="100" height="170" as="geometry" />
        </mxCell>
        <mxCell id="DWZ_4HrFMzU2AhQ7Lu3O-42" value="" style="html=1;points=[[0,0,0,0,5],[0,1,0,0,-5],[1,0,0,0,5],[1,1,0,0,-5]];perimeter=orthogonalPerimeter;outlineConnect=0;targetShapes=umlLifeline;portConstraint=eastwest;newEdgeStyle={&quot;curved&quot;:0,&quot;rounded&quot;:0};" parent="DWZ_4HrFMzU2AhQ7Lu3O-41" vertex="1">
          <mxGeometry x="45" y="60" width="10" height="110" as="geometry" />
        </mxCell>
        <mxCell id="DWZ_4HrFMzU2AhQ7Lu3O-43" value="setLocations()" style="html=1;verticalAlign=bottom;endArrow=block;curved=0;rounded=0;" parent="1" edge="1">
          <mxGeometry x="-0.0393" width="80" relative="1" as="geometry">
            <mxPoint x="152.5" y="920" as="sourcePoint" />
            <mxPoint x="267.5" y="920" as="targetPoint" />
            <Array as="points">
              <mxPoint x="212.5" y="920" />
            </Array>
            <mxPoint as="offset" />
          </mxGeometry>
        </mxCell>
        <mxCell id="DWZ_4HrFMzU2AhQ7Lu3O-44" value="locations" style="html=1;verticalAlign=bottom;endArrow=open;dashed=1;endSize=8;curved=0;rounded=0;" parent="1" edge="1">
          <mxGeometry relative="1" as="geometry">
            <mxPoint x="267.5" y="980" as="sourcePoint" />
            <mxPoint x="152.5" y="980" as="targetPoint" />
            <Array as="points">
              <mxPoint x="197.5" y="980" />
            </Array>
            <mxPoint as="offset" />
          </mxGeometry>
        </mxCell>
        <mxCell id="DWZ_4HrFMzU2AhQ7Lu3O-45" value="setRequirements()" style="html=1;verticalAlign=bottom;endArrow=block;curved=0;rounded=0;" parent="1" edge="1">
          <mxGeometry x="-0.0393" width="80" relative="1" as="geometry">
            <mxPoint x="152.5" y="940" as="sourcePoint" />
            <mxPoint x="267.5" y="940" as="targetPoint" />
            <Array as="points">
              <mxPoint x="207.5" y="940" />
            </Array>
            <mxPoint as="offset" />
          </mxGeometry>
        </mxCell>
        <mxCell id="DWZ_4HrFMzU2AhQ7Lu3O-46" value="process()" style="html=1;verticalAlign=bottom;endArrow=block;curved=0;rounded=0;" parent="1" edge="1">
          <mxGeometry x="-0.0393" width="80" relative="1" as="geometry">
            <mxPoint x="152.5" y="959.6800000000001" as="sourcePoint" />
            <mxPoint x="267.5" y="960" as="targetPoint" />
            <Array as="points">
              <mxPoint x="202.5" y="959.6800000000001" />
            </Array>
            <mxPoint as="offset" />
          </mxGeometry>
        </mxCell>
        <mxCell id="DWZ_4HrFMzU2AhQ7Lu3O-47" value="EV: ElevationAnd&lt;br&gt;ViewShed" style="shape=umlLifeline;perimeter=lifelinePerimeter;whiteSpace=wrap;html=1;container=1;dropTarget=0;collapsible=0;recursiveResize=0;outlineConnect=0;portConstraint=eastwest;newEdgeStyle={&quot;curved&quot;:0,&quot;rounded&quot;:0};" parent="1" vertex="1">
          <mxGeometry x="222.5" y="850" width="100" height="170" as="geometry" />
        </mxCell>
        <mxCell id="DWZ_4HrFMzU2AhQ7Lu3O-48" value="" style="html=1;points=[[0,0,0,0,5],[0,1,0,0,-5],[1,0,0,0,5],[1,1,0,0,-5]];perimeter=orthogonalPerimeter;outlineConnect=0;targetShapes=umlLifeline;portConstraint=eastwest;newEdgeStyle={&quot;curved&quot;:0,&quot;rounded&quot;:0};" parent="DWZ_4HrFMzU2AhQ7Lu3O-47" vertex="1">
          <mxGeometry x="45" y="60" width="10" height="110" as="geometry" />
        </mxCell>
        <mxCell id="DWZ_4HrFMzU2AhQ7Lu3O-49" value="Set Elevation/ViewShed" style="shape=umlFrame;whiteSpace=wrap;html=1;pointerEvents=0;width=140;height=20;align=left;" parent="1" vertex="1">
          <mxGeometry x="70" y="820" width="280" height="210" as="geometry" />
        </mxCell>
        <mxCell id="DWZ_4HrFMzU2AhQ7Lu3O-50" value="loadData()" style="html=1;align=left;spacingLeft=2;endArrow=block;rounded=0;edgeStyle=orthogonalEdgeStyle;curved=0;rounded=0;" parent="1" edge="1">
          <mxGeometry x="-0.0007" relative="1" as="geometry">
            <mxPoint x="278" y="954" as="sourcePoint" />
            <Array as="points">
              <mxPoint x="278" y="964" />
              <mxPoint x="293" y="964" />
              <mxPoint x="293" y="974" />
            </Array>
            <mxPoint x="278" y="974" as="targetPoint" />
            <mxPoint as="offset" />
          </mxGeometry>
        </mxCell>
        <mxCell id="DWZ_4HrFMzU2AhQ7Lu3O-51" value="DF: DataFilter" style="shape=umlLifeline;perimeter=lifelinePerimeter;whiteSpace=wrap;html=1;container=1;dropTarget=0;collapsible=0;recursiveResize=0;outlineConnect=0;portConstraint=eastwest;newEdgeStyle={&quot;curved&quot;:0,&quot;rounded&quot;:0};" parent="1" vertex="1">
          <mxGeometry x="422.5" y="380" width="100" height="170" as="geometry" />
        </mxCell>
        <mxCell id="DWZ_4HrFMzU2AhQ7Lu3O-52" value="" style="html=1;points=[[0,0,0,0,5],[0,1,0,0,-5],[1,0,0,0,5],[1,1,0,0,-5]];perimeter=orthogonalPerimeter;outlineConnect=0;targetShapes=umlLifeline;portConstraint=eastwest;newEdgeStyle={&quot;curved&quot;:0,&quot;rounded&quot;:0};" parent="DWZ_4HrFMzU2AhQ7Lu3O-51" vertex="1">
          <mxGeometry x="45" y="60" width="10" height="110" as="geometry" />
        </mxCell>
        <mxCell id="DWZ_4HrFMzU2AhQ7Lu3O-53" value="setLocations()" style="html=1;verticalAlign=bottom;endArrow=block;curved=0;rounded=0;" parent="1" edge="1">
          <mxGeometry x="-0.0393" width="80" relative="1" as="geometry">
            <mxPoint x="477.5" y="450" as="sourcePoint" />
            <mxPoint x="592.5" y="450" as="targetPoint" />
            <Array as="points">
              <mxPoint x="537.5" y="450" />
            </Array>
            <mxPoint as="offset" />
          </mxGeometry>
        </mxCell>
        <mxCell id="DWZ_4HrFMzU2AhQ7Lu3O-54" value="locations" style="html=1;verticalAlign=bottom;endArrow=open;dashed=1;endSize=8;curved=0;rounded=0;" parent="1" edge="1">
          <mxGeometry relative="1" as="geometry">
            <mxPoint x="592.5" y="510" as="sourcePoint" />
            <mxPoint x="477.5" y="510" as="targetPoint" />
            <Array as="points">
              <mxPoint x="522.5" y="510" />
            </Array>
            <mxPoint as="offset" />
          </mxGeometry>
        </mxCell>
        <mxCell id="DWZ_4HrFMzU2AhQ7Lu3O-55" value="setRequirements()" style="html=1;verticalAlign=bottom;endArrow=block;curved=0;rounded=0;" parent="1" edge="1">
          <mxGeometry x="-0.0393" width="80" relative="1" as="geometry">
            <mxPoint x="477.5" y="470" as="sourcePoint" />
            <mxPoint x="592.5" y="470" as="targetPoint" />
            <Array as="points">
              <mxPoint x="532.5" y="470" />
            </Array>
            <mxPoint as="offset" />
          </mxGeometry>
        </mxCell>
        <mxCell id="DWZ_4HrFMzU2AhQ7Lu3O-56" value="process()" style="html=1;verticalAlign=bottom;endArrow=block;curved=0;rounded=0;" parent="1" edge="1">
          <mxGeometry x="-0.0393" width="80" relative="1" as="geometry">
            <mxPoint x="477.5" y="489.68000000000006" as="sourcePoint" />
            <mxPoint x="592.5" y="490" as="targetPoint" />
            <Array as="points">
              <mxPoint x="527.5" y="489.68" />
            </Array>
            <mxPoint as="offset" />
          </mxGeometry>
        </mxCell>
        <mxCell id="DWZ_4HrFMzU2AhQ7Lu3O-57" value="AE: AstralEvents" style="shape=umlLifeline;perimeter=lifelinePerimeter;whiteSpace=wrap;html=1;container=1;dropTarget=0;collapsible=0;recursiveResize=0;outlineConnect=0;portConstraint=eastwest;newEdgeStyle={&quot;curved&quot;:0,&quot;rounded&quot;:0};" parent="1" vertex="1">
          <mxGeometry x="547.5" y="380" width="100" height="170" as="geometry" />
        </mxCell>
        <mxCell id="DWZ_4HrFMzU2AhQ7Lu3O-58" value="" style="html=1;points=[[0,0,0,0,5],[0,1,0,0,-5],[1,0,0,0,5],[1,1,0,0,-5]];perimeter=orthogonalPerimeter;outlineConnect=0;targetShapes=umlLifeline;portConstraint=eastwest;newEdgeStyle={&quot;curved&quot;:0,&quot;rounded&quot;:0};" parent="DWZ_4HrFMzU2AhQ7Lu3O-57" vertex="1">
          <mxGeometry x="45" y="60" width="10" height="110" as="geometry" />
        </mxCell>
        <mxCell id="DWZ_4HrFMzU2AhQ7Lu3O-59" value="Specify Astral Events" style="shape=umlFrame;whiteSpace=wrap;html=1;pointerEvents=0;width=130;height=20;align=left;" parent="1" vertex="1">
          <mxGeometry x="395" y="350" width="280" height="210" as="geometry" />
        </mxCell>
        <mxCell id="DWZ_4HrFMzU2AhQ7Lu3O-60" value="loadData()" style="html=1;align=left;spacingLeft=2;endArrow=block;rounded=0;edgeStyle=orthogonalEdgeStyle;curved=0;rounded=0;" parent="1" edge="1">
          <mxGeometry x="-0.0007" relative="1" as="geometry">
            <mxPoint x="603" y="484" as="sourcePoint" />
            <Array as="points">
              <mxPoint x="603" y="494" />
              <mxPoint x="618" y="494" />
              <mxPoint x="618" y="504" />
            </Array>
            <mxPoint x="603" y="504" as="targetPoint" />
            <mxPoint as="offset" />
          </mxGeometry>
        </mxCell>
        <mxCell id="DWZ_4HrFMzU2AhQ7Lu3O-61" value="DF: DataFilter" style="shape=umlLifeline;perimeter=lifelinePerimeter;whiteSpace=wrap;html=1;container=1;dropTarget=0;collapsible=0;recursiveResize=0;outlineConnect=0;portConstraint=eastwest;newEdgeStyle={&quot;curved&quot;:0,&quot;rounded&quot;:0};" parent="1" vertex="1">
          <mxGeometry x="427.5" y="610" width="100" height="170" as="geometry" />
        </mxCell>
        <mxCell id="DWZ_4HrFMzU2AhQ7Lu3O-62" value="" style="html=1;points=[[0,0,0,0,5],[0,1,0,0,-5],[1,0,0,0,5],[1,1,0,0,-5]];perimeter=orthogonalPerimeter;outlineConnect=0;targetShapes=umlLifeline;portConstraint=eastwest;newEdgeStyle={&quot;curved&quot;:0,&quot;rounded&quot;:0};" parent="DWZ_4HrFMzU2AhQ7Lu3O-61" vertex="1">
          <mxGeometry x="45" y="60" width="10" height="110" as="geometry" />
        </mxCell>
        <mxCell id="DWZ_4HrFMzU2AhQ7Lu3O-63" value="setLocations()" style="html=1;verticalAlign=bottom;endArrow=block;curved=0;rounded=0;" parent="1" edge="1">
          <mxGeometry x="-0.0393" width="80" relative="1" as="geometry">
            <mxPoint x="482.5" y="680" as="sourcePoint" />
            <mxPoint x="597.5" y="680" as="targetPoint" />
            <Array as="points">
              <mxPoint x="542.5" y="680" />
            </Array>
            <mxPoint as="offset" />
          </mxGeometry>
        </mxCell>
        <mxCell id="DWZ_4HrFMzU2AhQ7Lu3O-64" value="locations" style="html=1;verticalAlign=bottom;endArrow=open;dashed=1;endSize=8;curved=0;rounded=0;" parent="1" edge="1">
          <mxGeometry relative="1" as="geometry">
            <mxPoint x="597.5" y="740" as="sourcePoint" />
            <mxPoint x="482.5" y="740" as="targetPoint" />
            <Array as="points">
              <mxPoint x="527.5" y="740" />
            </Array>
            <mxPoint as="offset" />
          </mxGeometry>
        </mxCell>
        <mxCell id="DWZ_4HrFMzU2AhQ7Lu3O-65" value="setRequirements()" style="html=1;verticalAlign=bottom;endArrow=block;curved=0;rounded=0;" parent="1" edge="1">
          <mxGeometry x="-0.0393" width="80" relative="1" as="geometry">
            <mxPoint x="482.5" y="700" as="sourcePoint" />
            <mxPoint x="597.5" y="700" as="targetPoint" />
            <Array as="points">
              <mxPoint x="537.5" y="700" />
            </Array>
            <mxPoint as="offset" />
          </mxGeometry>
        </mxCell>
        <mxCell id="DWZ_4HrFMzU2AhQ7Lu3O-66" value="process()" style="html=1;verticalAlign=bottom;endArrow=block;curved=0;rounded=0;" parent="1" edge="1">
          <mxGeometry x="-0.0393" width="80" relative="1" as="geometry">
            <mxPoint x="482.5" y="719.6800000000001" as="sourcePoint" />
            <mxPoint x="597.5" y="720" as="targetPoint" />
            <Array as="points">
              <mxPoint x="532.5" y="719.6800000000001" />
            </Array>
            <mxPoint as="offset" />
          </mxGeometry>
        </mxCell>
        <mxCell id="DWZ_4HrFMzU2AhQ7Lu3O-67" value="AW: Astral Weather" style="shape=umlLifeline;perimeter=lifelinePerimeter;whiteSpace=wrap;html=1;container=1;dropTarget=0;collapsible=0;recursiveResize=0;outlineConnect=0;portConstraint=eastwest;newEdgeStyle={&quot;curved&quot;:0,&quot;rounded&quot;:0};" parent="1" vertex="1">
          <mxGeometry x="552.5" y="610" width="100" height="170" as="geometry" />
        </mxCell>
        <mxCell id="DWZ_4HrFMzU2AhQ7Lu3O-68" value="" style="html=1;points=[[0,0,0,0,5],[0,1,0,0,-5],[1,0,0,0,5],[1,1,0,0,-5]];perimeter=orthogonalPerimeter;outlineConnect=0;targetShapes=umlLifeline;portConstraint=eastwest;newEdgeStyle={&quot;curved&quot;:0,&quot;rounded&quot;:0};" parent="DWZ_4HrFMzU2AhQ7Lu3O-67" vertex="1">
          <mxGeometry x="45" y="60" width="10" height="110" as="geometry" />
        </mxCell>
        <mxCell id="DWZ_4HrFMzU2AhQ7Lu3O-69" value="Specify Astral Weather" style="shape=umlFrame;whiteSpace=wrap;html=1;pointerEvents=0;width=130;height=20;align=left;" parent="1" vertex="1">
          <mxGeometry x="400" y="580" width="280" height="210" as="geometry" />
        </mxCell>
        <mxCell id="DWZ_4HrFMzU2AhQ7Lu3O-70" value="loadData()" style="html=1;align=left;spacingLeft=2;endArrow=block;rounded=0;edgeStyle=orthogonalEdgeStyle;curved=0;rounded=0;" parent="1" edge="1">
          <mxGeometry x="-0.0007" relative="1" as="geometry">
            <mxPoint x="608" y="714" as="sourcePoint" />
            <Array as="points">
              <mxPoint x="608" y="724" />
              <mxPoint x="623" y="724" />
              <mxPoint x="623" y="734" />
            </Array>
            <mxPoint x="608" y="734" as="targetPoint" />
            <mxPoint as="offset" />
          </mxGeometry>
        </mxCell>
        <mxCell id="DWZ_4HrFMzU2AhQ7Lu3O-71" value="DF: DataFilter" style="shape=umlLifeline;perimeter=lifelinePerimeter;whiteSpace=wrap;html=1;container=1;dropTarget=0;collapsible=0;recursiveResize=0;outlineConnect=0;portConstraint=eastwest;newEdgeStyle={&quot;curved&quot;:0,&quot;rounded&quot;:0};" parent="1" vertex="1">
          <mxGeometry x="417.5" y="850" width="100" height="170" as="geometry" />
        </mxCell>
        <mxCell id="DWZ_4HrFMzU2AhQ7Lu3O-72" value="" style="html=1;points=[[0,0,0,0,5],[0,1,0,0,-5],[1,0,0,0,5],[1,1,0,0,-5]];perimeter=orthogonalPerimeter;outlineConnect=0;targetShapes=umlLifeline;portConstraint=eastwest;newEdgeStyle={&quot;curved&quot;:0,&quot;rounded&quot;:0};" parent="DWZ_4HrFMzU2AhQ7Lu3O-71" vertex="1">
          <mxGeometry x="45" y="50" width="10" height="120" as="geometry" />
        </mxCell>
        <mxCell id="DWZ_4HrFMzU2AhQ7Lu3O-73" value="setLocations()" style="html=1;verticalAlign=bottom;endArrow=block;curved=0;rounded=0;" parent="1" edge="1">
          <mxGeometry x="-0.0393" width="80" relative="1" as="geometry">
            <mxPoint x="472.5" y="920" as="sourcePoint" />
            <mxPoint x="587.5" y="920" as="targetPoint" />
            <Array as="points">
              <mxPoint x="532.5" y="920" />
            </Array>
            <mxPoint as="offset" />
          </mxGeometry>
        </mxCell>
        <mxCell id="DWZ_4HrFMzU2AhQ7Lu3O-74" value="locations" style="html=1;verticalAlign=bottom;endArrow=open;dashed=1;endSize=8;curved=0;rounded=0;" parent="1" edge="1">
          <mxGeometry relative="1" as="geometry">
            <mxPoint x="587.5" y="980" as="sourcePoint" />
            <mxPoint x="472.5" y="980" as="targetPoint" />
            <Array as="points">
              <mxPoint x="517.5" y="980" />
            </Array>
            <mxPoint as="offset" />
          </mxGeometry>
        </mxCell>
        <mxCell id="DWZ_4HrFMzU2AhQ7Lu3O-75" value="setRequirements()" style="html=1;verticalAlign=bottom;endArrow=block;curved=0;rounded=0;" parent="1" edge="1">
          <mxGeometry x="-0.0393" width="80" relative="1" as="geometry">
            <mxPoint x="472.5" y="940" as="sourcePoint" />
            <mxPoint x="587.5" y="940" as="targetPoint" />
            <Array as="points">
              <mxPoint x="527.5" y="940" />
            </Array>
            <mxPoint as="offset" />
          </mxGeometry>
        </mxCell>
        <mxCell id="DWZ_4HrFMzU2AhQ7Lu3O-76" value="process()" style="html=1;verticalAlign=bottom;endArrow=block;curved=0;rounded=0;" parent="1" edge="1">
          <mxGeometry x="-0.0393" width="80" relative="1" as="geometry">
            <mxPoint x="472.5" y="959.6800000000001" as="sourcePoint" />
            <mxPoint x="587.5" y="960" as="targetPoint" />
            <Array as="points">
              <mxPoint x="522.5" y="959.6800000000001" />
            </Array>
            <mxPoint as="offset" />
          </mxGeometry>
        </mxCell>
        <mxCell id="DWZ_4HrFMzU2AhQ7Lu3O-77" value="GPOIS: GeneratedPOIs" style="shape=umlLifeline;perimeter=lifelinePerimeter;whiteSpace=wrap;html=1;container=1;dropTarget=0;collapsible=0;recursiveResize=0;outlineConnect=0;portConstraint=eastwest;newEdgeStyle={&quot;curved&quot;:0,&quot;rounded&quot;:0};" parent="1" vertex="1">
          <mxGeometry x="542.5" y="850" width="100" height="170" as="geometry" />
        </mxCell>
        <mxCell id="DWZ_4HrFMzU2AhQ7Lu3O-78" value="" style="html=1;points=[[0,0,0,0,5],[0,1,0,0,-5],[1,0,0,0,5],[1,1,0,0,-5]];perimeter=orthogonalPerimeter;outlineConnect=0;targetShapes=umlLifeline;portConstraint=eastwest;newEdgeStyle={&quot;curved&quot;:0,&quot;rounded&quot;:0};" parent="DWZ_4HrFMzU2AhQ7Lu3O-77" vertex="1">
          <mxGeometry x="45" y="60" width="10" height="110" as="geometry" />
        </mxCell>
        <mxCell id="DWZ_4HrFMzU2AhQ7Lu3O-79" value="GeneratePOIs" style="shape=umlFrame;whiteSpace=wrap;html=1;pointerEvents=0;width=140;height=20;align=left;" parent="1" vertex="1">
          <mxGeometry x="400" y="820" width="280" height="210" as="geometry" />
        </mxCell>
        <mxCell id="DWZ_4HrFMzU2AhQ7Lu3O-80" value="loadData()" style="html=1;align=left;spacingLeft=2;endArrow=block;rounded=0;edgeStyle=orthogonalEdgeStyle;curved=0;rounded=0;" parent="1" edge="1">
          <mxGeometry x="-0.0007" relative="1" as="geometry">
            <mxPoint x="598" y="954" as="sourcePoint" />
            <Array as="points">
              <mxPoint x="598" y="964" />
              <mxPoint x="613" y="964" />
              <mxPoint x="613" y="974" />
            </Array>
            <mxPoint x="598" y="974" as="targetPoint" />
            <mxPoint as="offset" />
          </mxGeometry>
        </mxCell>
        <mxCell id="DWZ_4HrFMzU2AhQ7Lu3O-84" style="edgeStyle=orthogonalEdgeStyle;rounded=0;orthogonalLoop=1;jettySize=auto;html=1;entryX=0.508;entryY=1;entryDx=0;entryDy=0;entryPerimeter=0;" parent="1" edge="1">
          <mxGeometry relative="1" as="geometry">
            <mxPoint x="290" y="560" as="sourcePoint" />
            <mxPoint x="290.25" y="580" as="targetPoint" />
          </mxGeometry>
        </mxCell>
        <mxCell id="DWZ_4HrFMzU2AhQ7Lu3O-85" style="edgeStyle=orthogonalEdgeStyle;rounded=0;orthogonalLoop=1;jettySize=auto;html=1;entryX=0.508;entryY=1;entryDx=0;entryDy=0;entryPerimeter=0;" parent="1" edge="1">
          <mxGeometry relative="1" as="geometry">
            <mxPoint x="440" y="560" as="sourcePoint" />
            <mxPoint x="440.25" y="580" as="targetPoint" />
            <Array as="points">
              <mxPoint x="440" y="570" />
              <mxPoint x="440" y="570" />
            </Array>
          </mxGeometry>
        </mxCell>
        <mxCell id="DWZ_4HrFMzU2AhQ7Lu3O-86" style="edgeStyle=orthogonalEdgeStyle;rounded=0;orthogonalLoop=1;jettySize=auto;html=1;entryX=0.508;entryY=1;entryDx=0;entryDy=0;entryPerimeter=0;" parent="1" edge="1">
          <mxGeometry relative="1" as="geometry">
            <mxPoint x="290" y="790" as="sourcePoint" />
            <mxPoint x="290.25" y="820" as="targetPoint" />
          </mxGeometry>
        </mxCell>
        <mxCell id="DWZ_4HrFMzU2AhQ7Lu3O-89" value="UI: UuserInterface" style="shape=umlLifeline;perimeter=lifelinePerimeter;whiteSpace=wrap;html=1;container=1;dropTarget=0;collapsible=0;recursiveResize=0;outlineConnect=0;portConstraint=eastwest;newEdgeStyle={&quot;curved&quot;:0,&quot;rounded&quot;:0};" parent="1" vertex="1">
          <mxGeometry x="280" y="1120" width="100" height="170" as="geometry" />
        </mxCell>
        <mxCell id="DWZ_4HrFMzU2AhQ7Lu3O-90" value="" style="html=1;points=[[0,0,0,0,5],[0,1,0,0,-5],[1,0,0,0,5],[1,1,0,0,-5]];perimeter=orthogonalPerimeter;outlineConnect=0;targetShapes=umlLifeline;portConstraint=eastwest;newEdgeStyle={&quot;curved&quot;:0,&quot;rounded&quot;:0};" parent="DWZ_4HrFMzU2AhQ7Lu3O-89" vertex="1">
          <mxGeometry x="45" y="50" width="10" height="120" as="geometry" />
        </mxCell>
        <mxCell id="DWZ_4HrFMzU2AhQ7Lu3O-91" value="DF: DataFilter" style="shape=umlLifeline;perimeter=lifelinePerimeter;whiteSpace=wrap;html=1;container=1;dropTarget=0;collapsible=0;recursiveResize=0;outlineConnect=0;portConstraint=eastwest;newEdgeStyle={&quot;curved&quot;:0,&quot;rounded&quot;:0};" parent="1" vertex="1">
          <mxGeometry x="395" y="1120" width="100" height="170" as="geometry" />
        </mxCell>
        <mxCell id="DWZ_4HrFMzU2AhQ7Lu3O-92" value="" style="html=1;points=[[0,0,0,0,5],[0,1,0,0,-5],[1,0,0,0,5],[1,1,0,0,-5]];perimeter=orthogonalPerimeter;outlineConnect=0;targetShapes=umlLifeline;portConstraint=eastwest;newEdgeStyle={&quot;curved&quot;:0,&quot;rounded&quot;:0};" parent="DWZ_4HrFMzU2AhQ7Lu3O-91" vertex="1">
          <mxGeometry x="45" y="60" width="10" height="110" as="geometry" />
        </mxCell>
        <mxCell id="DWZ_4HrFMzU2AhQ7Lu3O-93" value="Display Locations to User" style="shape=umlFrame;whiteSpace=wrap;html=1;pointerEvents=0;width=160;height=20;align=left;" parent="1" vertex="1">
          <mxGeometry x="190" y="1090" width="375" height="210" as="geometry" />
        </mxCell>
        <mxCell id="DWZ_4HrFMzU2AhQ7Lu3O-97" value="" style="shape=umlLifeline;perimeter=lifelinePerimeter;whiteSpace=wrap;html=1;container=1;dropTarget=0;collapsible=0;recursiveResize=0;outlineConnect=0;portConstraint=eastwest;newEdgeStyle={&quot;curved&quot;:0,&quot;rounded&quot;:0};participant=umlActor;" parent="1" vertex="1">
          <mxGeometry x="200" y="1130" width="20" height="160" as="geometry" />
        </mxCell>
        <mxCell id="DWZ_4HrFMzU2AhQ7Lu3O-98" value="" style="html=1;points=[[0,0,0,0,5],[0,1,0,0,-5],[1,0,0,0,5],[1,1,0,0,-5]];perimeter=orthogonalPerimeter;outlineConnect=0;targetShapes=umlLifeline;portConstraint=eastwest;newEdgeStyle={&quot;curved&quot;:0,&quot;rounded&quot;:0};" parent="DWZ_4HrFMzU2AhQ7Lu3O-97" vertex="1">
          <mxGeometry x="5" y="60" width="10" height="100" as="geometry" />
        </mxCell>
        <mxCell id="DWZ_4HrFMzU2AhQ7Lu3O-99" value="evaluateOperators()" style="html=1;align=left;spacingLeft=2;endArrow=block;rounded=0;edgeStyle=orthogonalEdgeStyle;curved=0;rounded=0;" parent="1" edge="1">
          <mxGeometry x="0.8571" y="10" relative="1" as="geometry">
            <mxPoint x="449.11" y="1240" as="sourcePoint" />
            <Array as="points">
              <mxPoint x="474.11" y="1240" />
              <mxPoint x="474.11" y="1260" />
            </Array>
            <mxPoint x="449.11" y="1260" as="targetPoint" />
            <mxPoint as="offset" />
          </mxGeometry>
        </mxCell>
        <mxCell id="DWZ_4HrFMzU2AhQ7Lu3O-100" value="displayLocations()" style="html=1;verticalAlign=bottom;endArrow=open;dashed=1;endSize=8;curved=0;rounded=0;" parent="1" target="DWZ_4HrFMzU2AhQ7Lu3O-98" edge="1">
          <mxGeometry relative="1" as="geometry">
            <mxPoint x="324.11" y="1275" as="sourcePoint" />
            <mxPoint x="219.11" y="1275" as="targetPoint" />
          </mxGeometry>
        </mxCell>
        <mxCell id="DWZ_4HrFMzU2AhQ7Lu3O-101" value="locations" style="html=1;verticalAlign=bottom;endArrow=open;dashed=1;endSize=8;curved=0;rounded=0;" parent="1" edge="1">
          <mxGeometry x="0.0522" relative="1" as="geometry">
            <mxPoint x="439.11" y="1260" as="sourcePoint" />
            <mxPoint x="334.11" y="1260" as="targetPoint" />
            <mxPoint as="offset" />
          </mxGeometry>
        </mxCell>
        <mxCell id="DWZ_4HrFMzU2AhQ7Lu3O-102" value="UI: UuserInterface" style="shape=umlLifeline;perimeter=lifelinePerimeter;whiteSpace=wrap;html=1;container=1;dropTarget=0;collapsible=0;recursiveResize=0;outlineConnect=0;portConstraint=eastwest;newEdgeStyle={&quot;curved&quot;:0,&quot;rounded&quot;:0};" parent="1" vertex="1">
          <mxGeometry x="292.5" y="1360" width="100" height="170" as="geometry" />
        </mxCell>
        <mxCell id="DWZ_4HrFMzU2AhQ7Lu3O-103" value="" style="html=1;points=[[0,0,0,0,5],[0,1,0,0,-5],[1,0,0,0,5],[1,1,0,0,-5]];perimeter=orthogonalPerimeter;outlineConnect=0;targetShapes=umlLifeline;portConstraint=eastwest;newEdgeStyle={&quot;curved&quot;:0,&quot;rounded&quot;:0};" parent="DWZ_4HrFMzU2AhQ7Lu3O-102" vertex="1">
          <mxGeometry x="45" y="50" width="10" height="120" as="geometry" />
        </mxCell>
        <mxCell id="DWZ_4HrFMzU2AhQ7Lu3O-104" value="DF: DataFilter" style="shape=umlLifeline;perimeter=lifelinePerimeter;whiteSpace=wrap;html=1;container=1;dropTarget=0;collapsible=0;recursiveResize=0;outlineConnect=0;portConstraint=eastwest;newEdgeStyle={&quot;curved&quot;:0,&quot;rounded&quot;:0};" parent="1" vertex="1">
          <mxGeometry x="407.5" y="1360" width="100" height="170" as="geometry" />
        </mxCell>
        <mxCell id="DWZ_4HrFMzU2AhQ7Lu3O-105" value="" style="html=1;points=[[0,0,0,0,5],[0,1,0,0,-5],[1,0,0,0,5],[1,1,0,0,-5]];perimeter=orthogonalPerimeter;outlineConnect=0;targetShapes=umlLifeline;portConstraint=eastwest;newEdgeStyle={&quot;curved&quot;:0,&quot;rounded&quot;:0};" parent="DWZ_4HrFMzU2AhQ7Lu3O-104" vertex="1">
          <mxGeometry x="45" y="60" width="10" height="110" as="geometry" />
        </mxCell>
        <mxCell id="DWZ_4HrFMzU2AhQ7Lu3O-106" value="Export KML" style="shape=umlFrame;whiteSpace=wrap;html=1;pointerEvents=0;width=160;height=20;align=left;" parent="1" vertex="1">
          <mxGeometry x="182.5" y="1330" width="390" height="210" as="geometry" />
        </mxCell>
        <mxCell id="DWZ_4HrFMzU2AhQ7Lu3O-107" value="" style="shape=umlLifeline;perimeter=lifelinePerimeter;whiteSpace=wrap;html=1;container=1;dropTarget=0;collapsible=0;recursiveResize=0;outlineConnect=0;portConstraint=eastwest;newEdgeStyle={&quot;curved&quot;:0,&quot;rounded&quot;:0};participant=umlActor;" parent="1" vertex="1">
          <mxGeometry x="217.5" y="1360" width="20" height="170" as="geometry" />
        </mxCell>
        <mxCell id="DWZ_4HrFMzU2AhQ7Lu3O-108" value="" style="html=1;points=[[0,0,0,0,5],[0,1,0,0,-5],[1,0,0,0,5],[1,1,0,0,-5]];perimeter=orthogonalPerimeter;outlineConnect=0;targetShapes=umlLifeline;portConstraint=eastwest;newEdgeStyle={&quot;curved&quot;:0,&quot;rounded&quot;:0};" parent="DWZ_4HrFMzU2AhQ7Lu3O-107" vertex="1">
          <mxGeometry x="5" y="60" width="10" height="100" as="geometry" />
        </mxCell>
        <mxCell id="DWZ_4HrFMzU2AhQ7Lu3O-116" value="convertToKML()" style="html=1;verticalAlign=bottom;endArrow=open;dashed=1;endSize=8;curved=0;rounded=0;" parent="1" edge="1">
          <mxGeometry relative="1" as="geometry">
            <mxPoint x="452.5" y="1502" as="sourcePoint" />
            <mxPoint x="347.5" y="1502" as="targetPoint" />
            <Array as="points">
              <mxPoint x="387.5" y="1502" />
            </Array>
            <mxPoint as="offset" />
          </mxGeometry>
        </mxCell>
        <mxCell id="DWZ_4HrFMzU2AhQ7Lu3O-117" value="requestKML()" style="html=1;verticalAlign=bottom;endArrow=block;curved=0;rounded=0;" parent="1" edge="1">
          <mxGeometry width="80" relative="1" as="geometry">
            <mxPoint x="232.5" y="1480" as="sourcePoint" />
            <mxPoint x="337.5" y="1480" as="targetPoint" />
          </mxGeometry>
        </mxCell>
        <mxCell id="DWZ_4HrFMzU2AhQ7Lu3O-118" value="requestKML()" style="html=1;verticalAlign=bottom;endArrow=block;curved=0;rounded=0;" parent="1" edge="1">
          <mxGeometry width="80" relative="1" as="geometry">
            <mxPoint x="347.5" y="1480.57" as="sourcePoint" />
            <mxPoint x="452.5" y="1480.57" as="targetPoint" />
          </mxGeometry>
        </mxCell>
        <mxCell id="DWZ_4HrFMzU2AhQ7Lu3O-119" value="saveKML()" style="html=1;verticalAlign=bottom;endArrow=open;dashed=1;endSize=8;curved=0;rounded=0;" parent="1" edge="1">
          <mxGeometry x="-0.0476" relative="1" as="geometry">
            <mxPoint x="337.5" y="1513" as="sourcePoint" />
            <mxPoint x="232.5" y="1513" as="targetPoint" />
            <mxPoint as="offset" />
          </mxGeometry>
        </mxCell>
        <mxCell id="DWZ_4HrFMzU2AhQ7Lu3O-121" style="edgeStyle=orthogonalEdgeStyle;rounded=0;orthogonalLoop=1;jettySize=auto;html=1;entryX=0.508;entryY=1;entryDx=0;entryDy=0;entryPerimeter=0;" parent="1" edge="1">
          <mxGeometry relative="1" as="geometry">
            <mxPoint x="372.5" y="1300" as="sourcePoint" />
            <mxPoint x="372.75" y="1330" as="targetPoint" />
          </mxGeometry>
        </mxCell>
        <mxCell id="-RTj4_jvdrbvGM9pnTlL-1" value="" style="ellipse;html=1;shape=endState;fillColor=#000000;strokeColor=#ff0000;" parent="1" vertex="1">
          <mxGeometry x="365" y="1600" width="30" height="30" as="geometry" />
        </mxCell>
        <mxCell id="-RTj4_jvdrbvGM9pnTlL-2" style="edgeStyle=orthogonalEdgeStyle;rounded=0;orthogonalLoop=1;jettySize=auto;html=1;entryX=0.5;entryY=0;entryDx=0;entryDy=0;exitX=0.533;exitY=1.001;exitDx=0;exitDy=0;exitPerimeter=0;" parent="1" edge="1" target="-RTj4_jvdrbvGM9pnTlL-1">
          <mxGeometry relative="1" as="geometry">
            <mxPoint x="380.3700000000001" y="1540.2099999999998" as="sourcePoint" />
            <mxPoint x="380" y="1650" as="targetPoint" />
            <Array as="points">
              <mxPoint x="380" y="1596" />
              <mxPoint x="380" y="1596" />
            </Array>
          </mxGeometry>
        </mxCell>
        <mxCell id="-RTj4_jvdrbvGM9pnTlL-3" value="locations" style="html=1;verticalAlign=bottom;endArrow=open;dashed=1;endSize=8;curved=0;rounded=0;" parent="1" edge="1">
          <mxGeometry relative="1" as="geometry">
            <mxPoint x="267.5" y="750" as="sourcePoint" />
            <mxPoint x="152.5" y="750" as="targetPoint" />
            <Array as="points">
              <mxPoint x="197.5" y="750" />
            </Array>
            <mxPoint as="offset" />
          </mxGeometry>
        </mxCell>
        <mxCell id="-RTj4_jvdrbvGM9pnTlL-4" style="edgeStyle=orthogonalEdgeStyle;rounded=0;orthogonalLoop=1;jettySize=auto;html=1;entryX=0.508;entryY=1;entryDx=0;entryDy=0;entryPerimeter=0;" parent="1" edge="1">
          <mxGeometry relative="1" as="geometry">
            <mxPoint x="439.99999999999994" y="790" as="sourcePoint" />
            <mxPoint x="440.24999999999994" y="820" as="targetPoint" />
          </mxGeometry>
        </mxCell>
        <mxCell id="-RTj4_jvdrbvGM9pnTlL-5" style="edgeStyle=orthogonalEdgeStyle;rounded=0;orthogonalLoop=1;jettySize=auto;html=1;exitX=0.097;exitY=0.999;exitDx=0;exitDy=0;exitPerimeter=0;" parent="1" edge="1" source="DWZ_4HrFMzU2AhQ7Lu3O-79">
          <mxGeometry relative="1" as="geometry">
            <mxPoint x="440.3599999999999" y="1030.2100000000003" as="sourcePoint" />
            <mxPoint x="376" y="1090" as="targetPoint" />
            <Array as="points">
              <mxPoint x="430" y="1030" />
              <mxPoint x="430" y="1060" />
              <mxPoint x="376" y="1060" />
            </Array>
          </mxGeometry>
        </mxCell>
        <mxCell id="-RTj4_jvdrbvGM9pnTlL-6" style="edgeStyle=orthogonalEdgeStyle;rounded=0;orthogonalLoop=1;jettySize=auto;html=1;exitX=0.894;exitY=1.002;exitDx=0;exitDy=0;exitPerimeter=0;" parent="1" source="DWZ_4HrFMzU2AhQ7Lu3O-49" edge="1">
          <mxGeometry relative="1" as="geometry">
            <mxPoint x="440.3599999999999" y="1030.2100000000003" as="sourcePoint" />
            <mxPoint x="376" y="1090" as="targetPoint" />
          </mxGeometry>
        </mxCell>
      </root>
    </mxGraphModel>
  </diagram>
</mxfile>
